# AST/ASF file generated using VICON BodyLanguage
# -----------------------------------------------
:version 1.10
:name VICON
:units
  mass 1.0
  length 0.45
  angle deg
:documentation
   .ast/.asf automatically generated from VICON data using
   VICON BodyBuilder and BodyLanguage model FoxedUp or BRILLIANT.MOD
:root
   order TX TY TZ RX RY RZ
   axis XYZ
   position 0 0 0  
   orientation 0 0 0 
:bonedata
  begin
     id 1 
     name lhipjoint
     direction 0.623529 -0.717805 0.309788 
     length 2.23224 
     axis 0 0 0  XYZ
  end
  begin
     id 2 
     name lfemur
     direction 0.34202 -0.939693 0  
     length 7.11402  
     axis 0 0 20  XYZ
    dof rx ry rz
    limits (-160.0 20.0)
           (-70.0 70.0)
           (-60.0 70.0)
  end
  begin
     id 3 
     name ltibia
     direction 0.34202 -0.939693 0   
     length 6.78496   
     axis 0 0 20   XYZ
    dof rx
    limits (-10.0 170.0)
  end
  begin
     id 4 
     name lfoot
     direction 0.125078 -0.343648 0.930732   
     length 1.84054   
     axis -90 7.62852e-016 20   XYZ
    dof rx rz
    limits (-45.0 90.0)
           (-70.0 20.0)
  end
  begin
     id 5 
     name ltoes
     direction 1.53565e-011 -4.21893e-011 1   
     length 0.916474   
     axis -90 7.62852e-016 20   XYZ
    dof rx
    limits (-90.0 20.0)
  end
  begin
     id 6 
     name rhipjoint
     direction -0.564688 -0.757748 0.327026   
     length 2.11457  
     axis 0 0 0  XYZ 
  end
  begin
     id 7 
     name rfemur
     direction -0.34202 -0.939693 0   
     length 7.14609   
     axis 0 0 -20   XYZ
    dof rx ry rz
    limits (-160.0 20.0)
           (-70.0 70.0)
           (-70.0 60.0)
  end
  begin
     id 8 
     name rtibia
     direction -0.34202 -0.939693 0   
     length 6.78101   
     axis 0 0 -20   XYZ
    dof rx
    limits (-10.0 170.0)
 end
 begin
     id 9 
     name rfoot
     direction -0.0992671 -0.272734 0.956955   
     length 1.96168  
     axis -90 -7.62852e-016 -20   XYZ
    dof rx rz
    limits (-45.0 90.0)
           (-20.0 70.0)
  end
  begin
     id 10 
     name rtoes
     direction -1.5356e-011 -4.21891e-011 1   
     length 0.982933   
     axis -90 -7.62852e-016 -20   XYZ
    dof rx
    limits (-90.0 20.0)
  end
  begin
     id 11 
     name lowerback
     direction -0.00596953 0.998668 0.0512524   
     length 1.87557   
     axis 0 0 0   XYZ
    dof rx ry rz
    limits (-20.0 45.0)
           (-30.0 30.0)
           (-30.0 30.0)
  end
  begin
     id 12 
     name upperback
     direction 0.00584879 0.999652 0.0257308   
     length 1.87883   
     axis 0 0 0   XYZ
    dof rx ry rz
    limits (-20.0 45.0)
           (-30.0 30.0)
           (-30.0 30.0)
  end
  begin
     id 13 
     name thorax
     direction 0.010104 0.999947 0.00178881   
     length 1.87779   
     axis 0 0 0   XYZ
    dof rx ry rz
    limits (-20.0 45.0)
           (-30.0 30.0)
           (-30.0 30.0)
  end
  begin
     id 14 
     name lowerneck
     direction 0.0120771 0.995934 -0.0892773   
     length 1.40897   
     axis 0 0 0   XYZ
    dof rx ry rz
    limits (-20.0 45.0)
           (-30.0 30.0)
           (-30.0 30.0)
  end
  begin
     id 15 
     name upperneck
     direction -0.030568 0.999465 -0.0116366   
     length 1.38661   
     axis 0 0 0   XYZ
    dof rx ry rz
    limits (-20.0 45.0)
           (-30.0 30.0)
           (-30.0 30.0)
  end
  begin
     id 16
     name head
     direction -0.0170715 0.999854 -0.00104426  
     length 1.47052  
     axis 0 0 0   XYZ
    dof rx ry rz
    limits (-20.0 45.0)
           (-30.0 30.0)
           (-30.0 30.0)
  end
  begin
     id 17 
     name lclavicle
     direction 0.977763 0.206143 0.038532  
     length 3.02424  
     axis 0 0 0   XYZ
    dof ry rz
    limits (-20.0 10.0)
           (0.0 20.0)
  end
  begin
     id 18 
     name lhumerus
     direction 1 -4.48965e-011 -2.62654e-027   
     length 4.68382   
     axis 180 -30 -90   XYZ
    dof rx ry rz
    limits (-60.0 90.0)
           (-90.0 90.0)
           (-90.0 90.0)
  end
  begin
     id 19
     name lradius
     direction 1 -4.48973e-011 -1.54954e-027   
     length 2.98124   
     axis 180 -30 -90   XYZ
    dof rx
    limits (-10.0 170.0)
  end
  begin
     id 20
     name lwrist
     direction 1 -4.48959e-011 7.20928e-028   
     length 1.49062   
     axis -5.52449e-016 90 90   XYZ
    dof ry
    limits (-180.0 0.0)
 end
  begin
     id 21 
     name lhand
     direction 1 -4.48971e-011 1.44186e-027   
     length 0.707595   
     axis -9.20027e-016 90 90   XYZ
    dof rx rz
    limits (-90.0 90.0)
           (-45.0 45.0)
  end
  begin
     id 22 
     name lfingers
     direction 1 -4.48985e-011 2.88371e-027   
     length 0.570481   
     axis -1.84005e-015 90 90   XYZ
    dof rx
    limits (0.0 90.0)
  end
  begin
     id 23
     name lthumb
     direction 0.707107 -6.34929e-011 0.707107   
     length 0.819101   
     axis -90 45 2.85299e-015   XYZ
    dof rx rz
    limits (-45.0 45.0)
           (-45.0 45.0)
  end
  begin
     id 24 
     name rclavicle
     direction -0.958661 0.284411 -0.00895327   
     length 3.11921  
     axis 0 0 0   XYZ 
    dof ry rz
    limits (-10.0 20.0)
           (-20.0 0.0)
  end
  begin
     id 25 
     name rhumerus
     direction -1 -4.48963e-011 -4.22193e-027  
     length 4.75876   
     axis 180 30 90   XYZ
    dof rx ry rz
    limits (-90.0 60.0)
           (-90.0 90.0)
           (-90.0 90.0)
  end
  begin
     id 26 
     name rradius
     direction -1 -4.48968e-011 -1.07616e-027   
     length 2.93293   
     axis 180 30 90   XYZ
    dof rx
    limits (-10.0 170.0)
  end
  begin
     id 27 
     name rwrist
     direction -1 -4.48965e-011 7.20928e-028   
     length 1.46647   
     axis -5.52449e-016 -90 -90   XYZ
    dof ry
    limits (-180.0 0.0)
  end
  begin
     id 28
     name rhand
     direction -1 -4.48971e-011 1.44186e-027   
     length 0.831748   
     axis -9.20027e-016 -90 -90   XYZ
    dof rx rz
    limits (-90.0 90.0)
           (-45.0 45.0)
  end
  begin
     id 29
     name rfingers
     direction -1 -4.48961e-011 2.88371e-027   
     length 0.670577   
     axis -1.84005e-015 -90 -90   XYZ
    dof rx
    limits (0.0 90.0)
  end
  begin
     id 30
     name rthumb
     direction -0.707107 -6.34929e-011 0.707107   
     length 0.962818   
     axis -90 -45 -2.85299e-015   XYZ
    dof rx rz
    limits (-45.0 45.0)
           (-45.0 45.0)
  end
:hierarchy
  begin
    root lhipjoint rhipjoint lowerback
    lhipjoint lfemur
    lfemur ltibia
    ltibia lfoot
    lfoot ltoes
    rhipjoint rfemur
    rfemur rtibia
    rtibia rfoot
    rfoot rtoes
    lowerback upperback
    upperback thorax
    thorax lowerneck lclavicle rclavicle
    lowerneck upperneck
    upperneck head
    lclavicle lhumerus
    lhumerus lradius
    lradius lwrist
    lwrist lhand lthumb
    lhand lfingers
    rclavicle rhumerus
    rhumerus rradius
    rradius rwrist
    rwrist rhand rthumb
    rhand rfingers
  end

#!OML:ASF E:\id_vita\Project 1\Capture day 1\Session 1\Female.ASF
:FULLY-SPECIFIED
:DEGREES
509
root -24.2117 16.3773 2.11202 -167.582 9.82552 -177.273
lowerback -15.1492 0.279916 -1.40319
upperback -6.1359 1.33645 2.45646
thorax 1.90811 1.07574 3.60195
lowerneck 5.57391 1.89296 -2.38785
upperneck 3.35487 2.61172 7.18976
head -0.0384922 1.38252 2.64192
rclavicle -4.29872e-014 -1.03368e-014
rhumerus 19.0466 31.136 -82.9138
rradius 134.294
rwrist -13.7625
rhand -46.3159 27.5715
rfingers 7.12502
rthumb -19.0495 -1.51563
lclavicle -4.29872e-014 -1.03368e-014
lhumerus -42.0058 38.0834 67.9019
lradius 11.7311
lwrist -70.396
lhand 1.9917 21.2145
lfingers 7.12502
lthumb 27.4967 49.2269
rfemur -18.6193 6.63414 18.9791
rtibia 23.4501
rfoot -10.2037 -11.6857
rtoes -25.7794
lfemur -18.3374 -12.2737 -17.3146
ltibia 28.2994
lfoot -22.6665 12.8291
ltoes 3.67232
510
root -24.2066 16.3753 2.11228 -167.64 9.74527 -177.284
lowerback -15.1217 0.342616 -1.38062
upperback -6.10753 1.41141 2.41458
thorax 1.91969 1.10923 3.55673
lowerneck 5.65233 1.80727 -2.32376
upperneck 3.24458 2.50158 7.06594
head -0.0780081 1.32303 2.58974
rclavicle 1.75427e-014 -1.39149e-015
rhumerus 17.8031 31.7203 -83.6599
rradius 134.169
rwrist -14.2146
rhand -44.9673 26.1288
rfingers 7.12502
rthumb -17.7522 -3.08084
lclavicle 1.75427e-014 -1.39149e-015
lhumerus -41.4775 37.271 68.7505
lradius 11.8927
lwrist -69.4429
lhand 2.11288 21.1589
lfingers 7.12502
lthumb 27.6125 49.1529
rfemur -18.5367 6.70867 18.9825
rtibia 23.4567
rfoot -10.1065 -11.8338
rtoes -25.946
lfemur -18.2752 -12.428 -17.2887
ltibia 28.2746
lfoot -22.6396 12.8054
ltoes 4.00256
511
root -24.1968 16.3736 2.10998 -167.782 9.71919 -177.315
lowerback -15.0408 0.436474 -1.46362
upperback -6.06597 1.53727 2.36759
thorax 1.91096 1.16742 3.57273
lowerneck 5.65002 1.69257 -2.27598
upperneck 3.21864 2.35269 7.03785
head -0.077169 1.24894 2.57477
rclavicle 1.33683e-014 -2.14687e-014
rhumerus 16.1593 32.1817 -84.5241
rradius 133.94
rwrist -14.5126
rhand -43.7696 25.0903
rfingers 7.12502
rthumb -16.5993 -4.21978
lclavicle 1.33683e-014 -2.14687e-014
lhumerus -40.9363 36.2971 69.666
lradius 11.9896
lwrist -68.3828
lhand 2.16286 21.2025
lfingers 7.12502
lthumb 27.6603 49.1888
rfemur -18.3534 6.84764 18.9885
rtibia 23.4644
rfoot -10.0401 -11.9922
rtoes -26.1699
lfemur -18.0838 -12.4595 -17.3298
ltibia 28.2479
lfoot -22.6543 12.8829
ltoes 3.43777
512
root -24.1883 16.374 2.10937 -167.854 9.75222 -177.379
lowerback -15.009 0.504285 -1.58257
upperback -6.04743 1.63907 2.34462
thorax 1.90382 1.21714 3.63168
lowerneck 5.60493 1.61483 -2.35676
upperneck 3.25164 2.2439 7.09242
head -0.0555614 1.19556 2.61082
rclavicle 1.2921e-015 6.75868e-015
rhumerus 15.0505 32.7778 -85.3755
rradius 133.746
rwrist -14.6128
rhand -43.0089 23.8587
rfingers 7.12502
rthumb -15.8669 -5.51117
lclavicle 1.2921e-015 6.75868e-015
lhumerus -40.7454 36.0477 69.9805
lradius 11.9913
lwrist -67.9802
lhand 2.12705 21.1602
lfingers 7.12502
lthumb 27.6261 49.152
rfemur -18.2778 6.872 18.9574
rtibia 23.4804
rfoot -10.0814 -11.9958
rtoes -26.2083
lfemur -17.9731 -12.3175 -17.4153
ltibia 28.2181
lfoot -22.6908 12.8778
ltoes 3.14082
513
root -24.1849 16.376 2.11235 -167.789 9.72856 -177.437
lowerback -15.0345 0.579258 -1.47264
upperback -6.0704 1.72915 2.2205
thorax 1.89402 1.26025 3.45312
lowerneck 5.67007 1.52737 -2.30947
upperneck 3.10252 2.13431 7.10147
head -0.107745 1.13638 2.60638
rclavicle 1.00635e-014 3.22031e-014
rhumerus 13.8955 33.6647 -86.3765
rradius 133.44
rwrist -14.1571
rhand -42.6496 23.0238
rfingers 7.12502
rthumb -15.5209 -6.37325
lclavicle 1.00635e-014 3.22031e-014
lhumerus -40.7425 36.2755 69.7559
lradius 11.9785
lwrist -68.1911
lhand 2.125 21.0576
lfingers 7.12502
lthumb 27.6241 49.0497
rfemur -18.3764 6.77962 18.9094
rtibia 23.5098
rfoot -10.0094 -12.029
rtoes -25.6049
lfemur -18.0454 -12.4436 -17.4383
ltibia 28.18
lfoot -22.6652 12.9793
ltoes 3.48534
